<?xml version="1.0" encoding="UTF-8"?>
<svg id="Layer_1" data-name="Layer 1" xmlns="http://www.w3.org/2000/svg" viewBox="0 0 327.3 119.67">
  <defs>
    <style>
      .cls-1 {
        fill: #0027a6;
        stroke-width: 0px;
      }
    </style>
  </defs>
  <path class="cls-1" d="m41.1689,67.0345c-4.6848-2.618-9.8519-4.3404-15.1568-5.0982l-.5512-.0689c-1.9979-.2067-3.9959-.5512-5.9938-.9645-3.4447-.8267-4.7537-2.8247-5.236-4.4092-.62-2.2046-.1378-4.6159,1.309-6.4072,1.7913-1.9979,4.6159-2.9625,8.1985-2.9625h1.309c4.8226.2756,8.474,2.5491,12.4699,5.1671l.4134.2756c.8267.5512,1.8601.8267,2.8247.8267,1.8601,0,3.5825-.8956,4.5471-2.4113,1.5157-2.5491.8267-5.8561-1.6535-7.5784-5.3738-4.1337-11.8499-6.4761-18.6016-6.6139h-.4134c-5.4427-.1378-10.8165,1.4468-15.3635,4.4782-4.6159,3.4447-7.3028,8.3363-7.3028,13.4345.0689,5.1671,2.8936,9.9897,7.3717,12.5388,3.8581,2.7558,8.9563,3.9959,13.8478,4.8915l.62.2067c6.545,1.1023,9.6453,2.618,11.092,3.7203,1.6535,1.1023,2.6869,2.8936,2.7558,4.8915-.0689,2.2046-1.1712,4.2715-3.0314,5.5116-2.6869,1.9979-6.0627,3.1003-9.4386,3.0314-5.1671,0-10.6098-2.0668-16.1902-6.2005-.9645-.8267-2.2046-1.2401-3.4447-1.2401-1.6535,0-3.1692.7578-4.2026,1.9979-1.8601,2.2046-1.5157,5.5116.7578,7.3717h0c7.2339,5.7871,15.019,8.7496,23.0797,8.8874,5.7183.0689,11.3676-1.7224,15.9836-5.1671l.0689-.0689c5.0293-3.7892,7.6473-8.6118,7.6473-13.7789.0689-8.543-4.8226-12.6077-7.7162-14.2612h0Z"/>
  <path class="cls-1" d="m109.5123,89.3563l-17.7748-21.9085,12.5388-12.4699c2.2735-2.2735,2.3424-5.9938.0689-8.2674l-.2067-.2067h0c-2.2735-2.2735-5.9249-2.3424-8.2674-.0689l-.0689.0689-22.7352,22.5974V28.5224c-.0689-3.3069-2.7558-5.9249-6.0627-5.9249h0c-3.2381.0689-5.8561,2.6869-5.9249,5.9249v65.1743c0,3.3069,2.6869,5.9938,5.9938,5.9938s5.9938-2.6869,5.9938-5.9938v-7.7162l10.1275-10.0586,17.017,20.944c1.9979,2.5491,5.7182,2.9625,8.2674.8956.0689-.0689.1378-.1378.2067-.1378h0c2.5491-1.9979,2.9625-5.6494.9645-8.1985-.0689,0-.1378,0-.1378-.0689,0,0,0,0,0,0Z"/>
  <path class="cls-1" d="m254.1911,47.8129c-3.3069-.1378-6.0627,2.4113-6.2005,5.7182v20.0483c.0689.6889.0689,1.3779,0,2.0668-.5512,8.2674-7.7162,14.4679-15.9836,13.9167-8.2674-.5512-14.4679-7.7162-13.9167-15.9836v-20.0483c0-3.3069-2.6869-5.9249-5.9249-5.9249-3.3069,0-5.9249,2.6869-5.9249,5.9249v20.0483c0,14.8123,11.9877,26.8,26.8,26.8h0c14.8124,0,26.8-11.9877,26.8-26.8v-20.0483c-.0689-3.1003-2.5491-5.5805-5.6494-5.7182h0Z"/>
  <path class="cls-1" d="m301.1772,47.744c-5.8561-.0689-11.2298,1.7224-15.708,4.8915-.4823-2.7558-2.8247-4.8226-5.7183-4.8226h-.2756c-3.238-.0689-5.8561,2.5491-5.9249,5.7871v60.0761c0,3.3069,2.6869,5.9938,5.9938,5.9938s5.9938-2.6869,5.9938-5.9938v-17.8437c4.2025,2.9625,9.3008,4.7537,14.8123,4.8226,14.6746.0689,26.6622-11.7121,26.8-26.4555.0688-14.4679-11.5054-26.2489-25.9733-26.4556Zm.0689,41.0612c-8.0607.2067-14.7435-6.1316-14.9501-14.1923-.2067-8.0607,6.1316-14.7434,14.1923-14.9501h0c8.1296-.1378,14.8812,6.4072,14.9502,14.5368,0,7.9229-6.3383,14.399-14.1923,14.6057Z"/>
  <path class="cls-1" d="m152.227,93.6967c0,3.3069,2.6869,5.9938,5.9938,5.9938s5.9938-2.6869,5.9938-5.9938V27.7645l-11.9877,11.5743v54.3579s0,0,0,0Z"/>
  <path class="cls-1" d="m123.4291,93.6967c0,3.3069,2.6869,5.9938,5.9938,5.9938s5.9938-2.6869,5.9938-5.9938v-38.0298l-11.9877,11.5743v26.4556s0,0,0,0Z"/>
  <path class="cls-1" d="m180.9561,11.6432v82.9491c0,3.3069,2.6869,5.9938,5.9938,5.9938s5.9938-2.6869,5.9938-5.9938V0l-11.9877,11.6432Z"/>
  <path class="cls-1" d="m135.7612,28.5224c0,3.5136-2.8936,6.4072-6.4072,6.4072s-6.4072-2.8936-6.4072-6.4072,2.8936-6.4072,6.4072-6.4072c3.5825,0,6.4072,2.8936,6.4072,6.4072h0"/>
</svg>